<?xml version="1.0" encoding="UTF-8"?>
<!DOCTYPE svg PUBLIC "-//W3C//DTD SVG 1.1//EN" "http://www.w3.org/Graphics/SVG/1.1/DTD/svg11.dtd">
<svg xmlns="http://www.w3.org/2000/svg" version="1.1" width="81px" height="30px" style="shape-rendering:geometricPrecision; text-rendering:geometricPrecision; image-rendering:optimizeQuality; fill-rule:evenodd; clip-rule:evenodd" xmlns:xlink="http://www.w3.org/1999/xlink">
<g><path style="opacity:0.684" fill="#000000" d="M 7.5,-0.5 C 12.5,-0.5 17.5,-0.5 22.5,-0.5C 23.976,1.49998 25.8094,3.16664 28,4.5C 28.6667,12.1667 28.6667,19.8333 28,27.5C 23.7321,28.1401 19.5655,28.8067 15.5,29.5C 11.8333,29.5 8.16667,29.5 4.5,29.5C 3.21412,26.883 1.54745,24.5496 -0.5,22.5C -0.5,15.5 -0.5,8.5 -0.5,1.5C 2.28044,0.921588 4.9471,0.254922 7.5,-0.5 Z M 6.5,2.5 C 11.6912,2.05849 16.6912,2.55849 21.5,4C 16.1667,4.66667 10.8333,4.66667 5.5,4C 6.05596,3.61742 6.38929,3.11742 6.5,2.5 Z M 7.5,7.5 C 13.5,7.5 19.5,7.5 25.5,7.5C 25.5,13.1667 25.5,18.8333 25.5,24.5C 19.4808,25.0725 13.4808,25.7391 7.5,26.5C 6.20975,20.1115 6.20975,13.7782 7.5,7.5 Z"/></g>
<g><path style="opacity:0.569" fill="#000000" d="M 80.5,11.5 C 80.5,14.5 80.5,17.5 80.5,20.5C 79.5,20.5 78.5,20.5 77.5,20.5C 76.8333,11.1667 76.1667,11.1667 75.5,20.5C 73.549,20.7733 72.049,20.1066 71,18.5C 67.9876,21.2499 65.321,20.9166 63,17.5C 62.5172,18.448 62.3505,19.448 62.5,20.5C 60.4727,20.6621 58.4727,20.4955 56.5,20C 55.1509,19.2276 54.3176,18.0609 54,16.5C 51.4725,21.384 48.4725,21.7173 45,17.5C 44.5172,18.448 44.3505,19.448 44.5,20.5C 43.448,20.6495 42.448,20.4828 41.5,20C 40.6959,18.2287 39.5292,16.7287 38,15.5C 37.9024,17.6193 37.0691,19.286 35.5,20.5C 34.5078,16.2172 34.1744,11.8839 34.5,7.5C 37.3851,8.54496 39.5518,10.545 41,13.5C 41.4955,11.5273 41.6621,9.5273 41.5,7.5C 42.5,7.5 43.5,7.5 44.5,7.5C 44.3398,9.19919 44.5065,10.8659 45,12.5C 47.4177,10.3199 50.0844,9.98652 53,11.5C 54.4733,8.25891 56.3066,7.92558 58.5,10.5C 59.1476,8.85084 60.1476,7.51751 61.5,6.5C 62.3078,8.4233 62.8078,10.4233 63,12.5C 64.126,11.0564 65.626,10.3898 67.5,10.5C 71.7735,10.4421 76.1068,10.7754 80.5,11.5 Z M 48.5,13.5 C 49.5862,13.62 50.2528,14.2867 50.5,15.5C 49.6964,17.9573 48.6964,17.9573 47.5,15.5C 47.8627,14.8165 48.1961,14.1499 48.5,13.5 Z M 57.5,13.5 C 58.5862,13.62 59.2528,14.2867 59.5,15.5C 59.1667,16.1667 58.8333,16.8333 58.5,17.5C 57.5713,16.3112 57.238,14.9778 57.5,13.5 Z M 66.5,13.5 C 67.5862,13.62 68.2528,14.2867 68.5,15.5C 67.6964,17.9573 66.6964,17.9573 65.5,15.5C 65.8627,14.8165 66.1961,14.1499 66.5,13.5 Z"/></g>
<g><path style="opacity:0.643" fill="#000000" d="M 20.5,8.5 C 21.5,8.5 22.5,8.5 23.5,8.5C 22.8357,13.4682 22.3357,18.4682 22,23.5C 21.4387,24.0219 20.772,24.3552 20,24.5C 17.3151,22.8252 15.3151,20.4918 14,17.5C 13.3131,19.5675 13.4798,21.5675 14.5,23.5C 12.5,24.8333 10.5,24.8333 8.5,23.5C 9.70311,18.8491 9.70311,14.1825 8.5,9.5C 13.9625,8.78388 17.4625,11.1172 19,16.5C 19.7786,14.1929 19.2786,12.1929 17.5,10.5C 18.6016,9.82434 19.6016,9.15767 20.5,8.5 Z"/></g>
</svg>
