<?xml version="1.0" encoding="UTF-8"?>
<!DOCTYPE svg PUBLIC "-//W3C//DTD SVG 1.1//EN" "http://www.w3.org/Graphics/SVG/1.1/DTD/svg11.dtd">
<svg xmlns="http://www.w3.org/2000/svg" version="1.1" width="115px" height="30px" style="shape-rendering:geometricPrecision; text-rendering:geometricPrecision; image-rendering:optimizeQuality; fill-rule:evenodd; clip-rule:evenodd" xmlns:xlink="http://www.w3.org/1999/xlink">
<g><path style="opacity:0.965" fill="#2eb67e" d="M 16.5,-0.5 C 17.8333,-0.5 19.1667,-0.5 20.5,-0.5C 22.1101,2.18882 22.9434,5.18882 23,8.5C 25.9104,5.69146 28.0771,6.19146 29.5,10C 29.4814,11.833 28.8148,13.333 27.5,14.5C 25.8333,14.5 24.1667,14.5 22.5,14.5C 22.2144,12.0673 21.5477,12.0673 20.5,14.5C 19.5,14.5 18.5,14.5 17.5,14.5C 16.1938,13.5326 15.5271,12.1993 15.5,10.5C 15.5,7.83333 15.5,5.16667 15.5,2.5C 15.5569,1.39105 15.8902,0.391047 16.5,-0.5 Z M 22.5,14.5 C 21.8333,14.5 21.1667,14.5 20.5,14.5C 21.5477,12.0673 22.2144,12.0673 22.5,14.5 Z"/></g>
<g><path style="opacity:0.779" fill="#000000" d="M 52.5,-0.5 C 54.5,-0.5 56.5,-0.5 58.5,-0.5C 58.3342,4.17853 58.5008,8.8452 59,13.5C 59.86,9.97324 62.0267,7.80657 65.5,7C 69.4594,7.15819 73.4594,7.32486 77.5,7.5C 77.5,13.1667 77.5,18.8333 77.5,24.5C 73.4594,24.6751 69.4594,24.8418 65.5,25C 62,24.1667 59.8333,22 59,18.5C 58.5045,20.4727 58.3379,22.4727 58.5,24.5C 56.5,24.5 54.5,24.5 52.5,24.5C 52.5,16.1667 52.5,7.83333 52.5,-0.5 Z M 66.5,12.5 C 71.2411,12.1614 72.5744,14.1614 70.5,18.5C 67.8155,19.666 65.8155,18.8327 64.5,16C 65.305,14.8873 65.9717,13.7206 66.5,12.5 Z"/></g>
<g><path style="opacity:0.768" fill="#000000" d="M 96.5,-0.5 C 98.5,-0.5 100.5,-0.5 102.5,-0.5C 102.334,3.51383 102.501,7.51383 103,11.5C 105.944,7.88644 109.777,6.55311 114.5,7.5C 114.5,7.83333 114.5,8.16667 114.5,8.5C 106.673,13.2704 106.673,17.9371 114.5,22.5C 114.5,23.1667 114.5,23.8333 114.5,24.5C 109.51,25.3048 105.677,23.6382 103,19.5C 102.506,21.1341 102.34,22.8008 102.5,24.5C 100.5,24.5 98.5,24.5 96.5,24.5C 96.5,16.1667 96.5,7.83333 96.5,-0.5 Z"/></g>
<g><path style="opacity:0.704" fill="#000000" d="M 41.5,6.5 C 44.2706,6.42074 46.9373,6.92074 49.5,8C 50.6719,9.86837 50.5053,11.7017 49,13.5C 46.985,12.1577 44.8183,11.6577 42.5,12C 44.7312,13.147 47.0645,14.147 49.5,15C 52.6995,19.529 51.6995,22.8623 46.5,25C 42.3449,25.8943 39.0116,24.7276 36.5,21.5C 36.4528,19.9996 37.1195,18.9996 38.5,18.5C 40.5477,19.77 42.5477,20.1033 44.5,19.5C 35.1664,16.8228 34.1664,12.4895 41.5,6.5 Z"/></g>
<g><path style="opacity:0.727" fill="#000000" d="M 85.5,6.5 C 89.8362,6.27229 93.1696,7.93896 95.5,11.5C 94.5637,12.9744 93.2303,13.9744 91.5,14.5C 89.2099,12.033 87.0433,12.033 85,14.5C 85.2921,19.7167 87.6255,20.7167 92,17.5C 94.2514,18.0635 95.2514,19.3968 95,21.5C 88.9578,27.0949 83.6245,26.4282 79,19.5C 77.4756,13.2151 79.6422,8.88175 85.5,6.5 Z"/></g>
<g><path style="opacity:0.92" fill="#36c6f0" d="M 8.5,-0.5 C 10.1667,-0.5 11.8333,-0.5 13.5,-0.5C 13.9321,0.709515 14.5987,1.70951 15.5,2.5C 15.5,5.16667 15.5,7.83333 15.5,10.5C 14.5116,11.795 13.5116,13.1283 12.5,14.5C 11.1667,14.5 9.83333,14.5 8.5,14.5C 8.16667,14.5 7.83333,14.5 7.5,14.5C 5.83333,14.5 4.16667,14.5 2.5,14.5C 1.5,13.5 0.5,12.5 -0.5,11.5C -0.5,10.5 -0.5,9.5 -0.5,8.5C 2.18882,6.88989 5.18882,6.05656 8.5,6C 7.23204,3.83683 7.23204,1.67016 8.5,-0.5 Z M 12.5,7.5 C 13.0768,6.22671 13.7435,6.22671 14.5,7.5C 14.0302,8.46295 13.3635,8.46295 12.5,7.5 Z"/></g>
<g><path style="opacity:0.882" fill="#df1d58" d="M 2.5,14.5 C 4.16667,14.5 5.83333,14.5 7.5,14.5C 7.83333,15.8333 8.16667,15.8333 8.5,14.5C 9.83333,14.5 11.1667,14.5 12.5,14.5C 13.1174,14.6107 13.6174,14.944 14,15.5C 14.4966,17.8098 14.6633,20.1432 14.5,22.5C 14.5,23.5 14.5,24.5 14.5,25.5C 14.5858,26.4959 14.2524,27.3292 13.5,28C 11.5273,28.4955 9.5273,28.6621 7.5,28.5C 7.66463,25.4816 7.49796,22.4816 7,19.5C 4.50603,22.0858 2.00603,22.0858 -0.5,19.5C -0.5,18.5 -0.5,17.5 -0.5,16.5C 0.222348,15.4489 1.22235,14.7822 2.5,14.5 Z"/></g>
<g><path style="opacity:0.84" fill="#ebb12e" d="M 17.5,14.5 C 18.5,14.5 19.5,14.5 20.5,14.5C 21.1667,14.5 21.8333,14.5 22.5,14.5C 24.1667,14.5 25.8333,14.5 27.5,14.5C 29.4411,16.0106 29.9411,18.0106 29,20.5C 24.6667,21.8333 20.3333,21.8333 16,20.5C 15.0589,18.0106 15.5589,16.0106 17.5,14.5 Z"/></g>
<g><path style="opacity:0.922" fill="#efb92c" d="M 14.5,22.5 C 16.8568,22.3367 19.1902,22.5034 21.5,23C 22.8333,24.6667 22.8333,26.3333 21.5,28C 19.5273,28.4955 17.5273,28.6621 15.5,28.5C 15.7373,27.209 15.404,26.209 14.5,25.5C 14.5,24.5 14.5,23.5 14.5,22.5 Z"/></g>
</svg>
