<?xml version="1.0" encoding="UTF-8"?>
<!DOCTYPE svg PUBLIC "-//W3C//DTD SVG 1.1//EN" "http://www.w3.org/Graphics/SVG/1.1/DTD/svg11.dtd">
<svg xmlns="http://www.w3.org/2000/svg" version="1.1" width="143px" height="30px" style="shape-rendering:geometricPrecision; text-rendering:geometricPrecision; image-rendering:optimizeQuality; fill-rule:evenodd; clip-rule:evenodd" xmlns:xlink="http://www.w3.org/1999/xlink">
<g><path style="opacity:0.931" fill="#283755" d="M 98.5,-0.5 C 100.833,-0.5 103.167,-0.5 105.5,-0.5C 105.19,9.26126 105.857,18.9279 107.5,28.5C 104.398,28.846 101.565,28.1793 99,26.5C 98.5002,17.5062 98.3336,8.50617 98.5,-0.5 Z"/></g>
<g><path style="opacity:0.845" fill="#283755" d="M 110.5,-0.5 C 112.833,-0.5 115.167,-0.5 117.5,-0.5C 117.051,9.35886 117.718,19.0255 119.5,28.5C 115.987,29.1243 113.153,28.1243 111,25.5C 110.5,16.8397 110.334,8.17307 110.5,-0.5 Z"/></g>
<g><path style="opacity:0.871" fill="#293756" d="M 60.5,7.5 C 58.283,8.36863 55.9496,8.70197 53.5,8.5C 53.5,15.1667 53.5,21.8333 53.5,28.5C 50.8333,28.5 48.1667,28.5 45.5,28.5C 45.5,21.8333 45.5,15.1667 45.5,8.5C 43.5,8.5 41.5,8.5 39.5,8.5C 39.5,6.16667 39.5,3.83333 39.5,1.5C 46.5,1.5 53.5,1.5 60.5,1.5C 60.5,3.5 60.5,5.5 60.5,7.5 Z"/></g>
<g><path style="opacity:0.956" fill="#1f7bf6" d="M 1.5,-0.5 C 10.5,-0.5 19.5,-0.5 28.5,-0.5C 29.4137,2.72797 29.7471,6.06131 29.5,9.5C 27.1667,9.5 24.8333,9.5 22.5,9.5C 22.5,8.16667 22.5,6.83333 22.5,5.5C 20.8333,5.5 19.1667,5.5 17.5,5.5C 17.5,6.5 17.5,7.5 17.5,8.5C 16.2209,9.96799 14.5542,10.6347 12.5,10.5C 12.938,6.09175 10.938,4.42508 6.5,5.5C 6.5,6.83333 6.5,8.16667 6.5,9.5C 3.85614,11.0342 1.52281,10.7009 -0.5,8.5C -0.5,6.16667 -0.5,3.83333 -0.5,1.5C 0.5,1.16667 1.16667,0.5 1.5,-0.5 Z"/></g>
<g><path style="opacity:0.912" fill="#283553" d="M 60.5,7.5 C 64.8458,6.89007 69.1791,6.55674 73.5,6.5C 73.8076,8.92397 73.4742,11.2573 72.5,13.5C 71.2638,14.2458 69.9305,14.5792 68.5,14.5C 68.5,19.1667 68.5,23.8333 68.5,28.5C 65.8333,28.5 63.1667,28.5 60.5,28.5C 60.5,21.5 60.5,14.5 60.5,7.5 Z"/></g>
<g><path style="opacity:0.901" fill="#293755" d="M 81.5,6.5 C 92.3858,5.35646 96.0525,9.6898 92.5,19.5C 89.223,20.2537 85.8897,20.7537 82.5,21C 83.8905,22.02 85.3905,22.8534 87,23.5C 89.3822,22.4459 91.8822,21.7792 94.5,21.5C 94.9167,24.0792 94.25,26.2458 92.5,28C 77.2426,30.7527 72.0759,24.9194 77,10.5C 78.3968,8.92975 79.8968,7.59641 81.5,6.5 Z M 83.5,12.5 C 84.8333,12.5 86.1667,12.5 87.5,12.5C 87.2204,16.2253 85.2204,17.392 81.5,16C 82.305,14.8873 82.9717,13.7206 83.5,12.5 Z"/></g>
<g><path style="opacity:0.901" fill="#293757" d="M 142.5,12.5 C 142.5,16.1667 142.5,19.8333 142.5,23.5C 141.163,24.3149 140.163,25.4815 139.5,27C 137.389,27.8447 135.389,28.678 133.5,29.5C 132.5,29.5 131.5,29.5 130.5,29.5C 121.304,25.4114 119.137,18.7448 124,9.5C 131.214,4.88556 137.381,5.88556 142.5,12.5 Z M 131.5,12.5 C 135.254,13.8654 136.421,16.5321 135,20.5C 131.509,23.4456 129.342,22.6122 128.5,18C 128.863,15.8077 129.863,13.9744 131.5,12.5 Z"/></g>
<g><path style="opacity:0.898" fill="#0b5fda" d="M -0.5,8.5 C 1.52281,10.7009 3.85614,11.0342 6.5,9.5C 6.5,13.1667 6.5,16.8333 6.5,20.5C 8.5,20.5 10.5,20.5 12.5,20.5C 12.5,17.1667 12.5,13.8333 12.5,10.5C 14.5542,10.6347 16.2209,9.96799 17.5,8.5C 17.5,10.5 17.5,12.5 17.5,14.5C 19.1667,14.5 20.8333,14.5 22.5,14.5C 22.5,12.8333 22.5,11.1667 22.5,9.5C 24.8333,9.5 27.1667,9.5 29.5,9.5C 29.6661,15.1764 29.4994,20.8431 29,26.5C 28.5,27 28,27.5 27.5,28C 18.8333,28.6667 10.1667,28.6667 1.5,28C 0.955796,27.2828 0.28913,26.7828 -0.5,26.5C -0.5,20.5 -0.5,14.5 -0.5,8.5 Z"/></g>
</svg>
